<?xml version="1.0" standalone="no"?><!DOCTYPE svg PUBLIC "-//W3C//DTD SVG 1.1//EN" "http://www.w3.org/Graphics/SVG/1.1/DTD/svg11.dtd"><svg t="1734774981986" class="icon" viewBox="0 0 1024 1024" version="1.1" xmlns="http://www.w3.org/2000/svg" p-id="6417" xmlns:xlink="http://www.w3.org/1999/xlink" width="256" height="256"><path d="M408.3 232.1h-35V197h-18.8v90h18.8v-37.2h35V287H427v-90h-18.7zM519.5 214.7h26.3V287h18.8v-72.3h26.2V197h-71.3zM637.6 197h-36v90h18.8v-32.3h17.1c21.4 0 32.1-9.7 32.1-29-0.1-19.1-10.7-28.7-32-28.7z m10.1 37.4c-2.3 1.8-6 2.7-11.1 2.7h-16.3v-22.4h16.3c5.2 0 8.8 0.9 10.9 2.7 2 1.6 3 4.4 3 8.4 0.1 4-0.8 6.9-2.8 8.6z" p-id="6418"></path><path d="M841.3 62H182.7C116.1 62 62 116.1 62 182.7v658.5C62 907.9 116.1 962 182.7 962h658.5c66.7 0 120.7-54.1 120.7-120.7V182.7C962 116.1 907.9 62 841.3 62z m54.8 779.3c0 30.3-24.6 54.9-54.9 54.9H182.7c-30.3 0-54.9-24.6-54.9-54.9V399.5h768.3v441.8z m0-509.3H127.9V182.7c0-30.3 24.6-54.9 54.9-54.9h658.5c30.3 0 54.9 24.6 54.9 54.9V332z" p-id="6419"></path><path d="M438.2 214.7h26.2V287h18.8v-72.3h26.3V197h-71.3zM775.3 673.1c-4.6 2.3-11.9 3.5-22 3.5-8.7 0-14.9-1.2-18.8-3.7-3.5-2.8-5.9-7.6-7.2-14.4l-1-5.4h-44.7l0.7 7.2c3.5 36.1 27.6 54.2 72.2 54.2 23.3 0 41-4 53.1-12.1 12.9-8.6 19.4-21.3 19.4-38.2 0-14.7-6.9-26.2-20.6-34.4-8.3-5.3-21.2-9.9-38.7-13.9-14-3.3-23.3-5.8-27.9-7.6-4.8-1.9-7.2-3.7-7.2-5.3 0-2.6 1.1-4.4 3.4-5.5l0.2-0.1 0.2-0.1c2.9-1.7 8.1-2.5 15.5-2.5 8.6 0 14.6 1.1 18.1 3.2 3 1.8 5.4 5.4 7.2 10.9l1.5 4.7H823l-0.9-7.3c-3.8-32.9-27-49.3-69.6-49.3-19.6 0-35.3 4-47.2 12-13.1 8.1-19.6 19.7-19.6 34.8 0 14.4 6.7 25.5 20.2 33.4 7.7 4.6 20.5 8.9 38.4 12.7 14.8 3.2 23.8 5.6 27.1 7.1h0.2c5.7 2.5 8.6 5.5 8.6 9.1-0.1 3.2-1.7 5.4-4.9 7zM509.8 696.3c14.9 14.7 34.2 22.1 57.8 22.1 15.2 0 28.3-4 39.3-12v3.8c0 11.2-2.6 19.4-7.8 24.5-5.1 5-13.1 7.5-24.1 7.5-10.7 0-18.3-1.3-22.7-3.8-3.8-2.2-6.5-6.5-7.9-12.7l-1.3-5.7h-50.4l1.5 8.3c3.4 18.1 11.8 31.7 25.1 40.8l0.1 0.1 0.1 0.1C533 777.8 551.4 782 575 782c27 0 47.5-6.5 61.5-19.5 13.9-13 20.9-32 20.9-57.1V561H607v7.5c-10.9-7.7-24-11.5-39.3-11.5-23.9 0-43.2 7.6-58 22.8-14.6 14.7-21.9 34.2-21.9 58.4 0 24.2 7.3 43.6 22 58.1z m38.6-88.8c5.9-6.8 14.2-10.2 24.8-10.2 10.9 0 19.2 3.4 25 10.1 6 7.3 9.1 17.5 9.1 30.8 0 12.7-3 22.8-9 30.1-6 6.4-14.5 9.6-25.4 9.6-12.4 0-21.2-3.7-26.5-11-4.9-6.6-7.3-16.2-7.3-28.7 0-13.6 3.1-23.8 9.3-30.7zM218.9 628.1c-14.6 9.4-21.9 23-21.9 40.9 0 13.3 5.2 24.3 15.7 33 10.1 8.3 23.4 12.5 40 12.5 13.3 0 25.2-2.2 35.5-6.7h0.2c3.8-1.8 7.4-3.8 10.6-6v9.1h43.4v-94c0-18.4-5.1-32.7-15.3-42.7-11.4-11.5-28.8-17.2-52.1-17.2-20 0-35.6 3.4-47 10.2-14.3 7.9-23.2 20.4-26.6 37.5l-1.5 7.3 45.3 3.4 1.3-5.6c1.2-5.2 4.1-9 8.7-11.6h0.1l0.1-0.1c3.9-2.3 9.7-3.5 17.4-3.5 8.5 0 14.7 1.6 18.5 4.9 3.4 2.9 5.2 7.6 5.4 14.1l-24.7 0.6c-22.5 0.5-40.2 5.2-53.1 13.9z m55.7 21l22.1-0.6v0.1c0 8.4-3.5 15.5-10.4 21.2-7.1 5.6-15.9 8.4-26.4 8.4-5.1 0-9.3-1.2-12.8-3.7-2.4-1.7-3.6-3.9-3.6-6.6 0-12.1 10.4-18.4 31.1-18.8zM410.6 633.4c0-10.1 3-18 9-23.9 5-5.1 10.8-7.6 17.2-7.6 6.2 0 12.2 0.9 18 2.7l21.1 7.5 11.9-38-28-12.9c-5.6-2.8-12.5-4.2-20.6-4.2-10.2 0-19 3-26.3 9-0.8 0.6-1.6 1.2-2.3 1.9v-7.1h-44v153.7h44v-81.1z" p-id="6420"></path></svg>