<?xml version="1.0" standalone="no"?><!DOCTYPE svg PUBLIC "-//W3C//DTD SVG 1.1//EN" "http://www.w3.org/Graphics/SVG/1.1/DTD/svg11.dtd"><svg t="1734774917064" class="icon" viewBox="0 0 1024 1024" version="1.1" xmlns="http://www.w3.org/2000/svg" p-id="2593" xmlns:xlink="http://www.w3.org/1999/xlink" width="256" height="256"><path d="M652.704091 308.760133 402.56303 308.760133c-25.89374 0-46.901193 21.007453-46.901193 46.901193 0 25.894763 21.007453 46.902216 46.901193 46.902216l250.14106 0c25.89374 0 46.901193-21.007453 46.901193-46.902216C699.605284 329.767586 678.597831 308.760133 652.704091 308.760133zM762.140549 58.618049 261.858428 58.618049c-86.35374 0-156.337651 69.986981-156.337651 156.338674l0 594.08553c0 86.352717 69.984934 156.337651 156.337651 156.337651l500.283144 0c86.35374 0 156.337651-69.985958 156.337651-156.337651L918.479223 214.957747C918.479223 128.60503 848.494289 58.618049 762.140549 58.618049zM824.675814 776.766153c0 69.635987-53.832046 94.810343-120.247688 94.810343L319.569828 871.576495c-66.413596 0-120.247688-25.175379-120.247688-94.810343L199.32214 247.232824c0-69.63394 53.833069-94.810343 120.247688-94.810343l384.858298 0c66.414619 0 120.247688 25.177426 120.247688 94.810343L824.675814 776.766153zM558.900681 496.365928 402.56303 496.365928c-25.89374 0-46.901193 20.99415-46.901193 46.901193 0 25.89374 21.007453 46.902216 46.901193 46.902216l156.337651 0c25.89374 0 46.901193-21.008476 46.901193-46.902216C605.801874 517.359055 584.794421 496.365928 558.900681 496.365928z" fill="#050000" p-id="2594"></path></svg>